<svg width="135" height="135" viewBox="0 0 135 135" fill="none" xmlns="http://www.w3.org/2000/svg">
<rect x="-0.000244141" width="135" height="135" fill="#232323"/>
<path fill-rule="evenodd" clip-rule="evenodd" d="M38.3119 54.8571C31.7795 50.2101 27.5099 46.0274 27.8764 44.0237C28.3548 41.408 39.3647 42.7226 42.2853 43.195C35.7702 40.715 17.4296 35.8751 16.0816 40.1265C14.3967 45.4408 39.2221 65.5386 51.1297 72.3668C65.9578 80.8697 88.4536 90.3153 105.303 92.0867C116.086 93.2205 122.152 92.0867 123.919 88.6641C126.308 84.0356 108.754 71.3039 97.6336 65.281C97.5035 65.2106 97.3792 65.1436 97.2604 65.08C95.7888 49.3285 82.5322 37 66.3961 37C53.9736 37 43.2578 44.3068 38.3119 54.8571ZM95.1404 79.6307C104.427 81.9108 111.36 82.7324 112.798 81.5783C115.3 79.5709 104.647 71.5053 98.7905 67.0711C98.2599 66.6694 97.7687 66.2975 97.3302 65.9626C97.3739 66.6361 97.3961 67.3155 97.3961 68C97.3961 72.1132 96.595 76.0392 95.1404 79.6307ZM66.3961 99C72.3836 99 77.9747 97.3025 82.7142 94.3625C70.9678 90.2959 59.3232 84.9621 50.243 79.9099C46.234 77.6793 40.9038 74.1262 35.4654 70.0903C36.5404 86.2364 49.9777 99 66.3961 99Z" fill="#404040"/>
</svg>
